<svg xmlns="http://www.w3.org/2000/svg" width="254.721" height="165.666" viewBox="0 0 254.721 165.666"><g transform="translate(-70.18 -64)"><g data-name="Group 18"><path data-name="Rectangle 54" d="m210.554 229.666-1.171-7.662 114.292-17.468 1.17 7.662z"/><path data-name="Rectangle 55" d="m208.206 214.335-1.171-7.662 114.292-17.468 1.17 7.662z"/><path data-name="Rectangle 56" d="m205.858 199.005-1.171-7.662 114.292-17.468 1.17 7.662z"/><path data-name="Rectangle 57" d="m203.511 183.674-1.171-7.662 114.292-17.468 1.17 7.662z"/><path data-name="Rectangle 58" d="m78.397 194.082-1.171-7.662 114.292-17.468 1.17 7.662z"/><path data-name="Rectangle 59" d="m76.049 178.752-1.171-7.662 114.292-17.468 1.17 7.662z"/><path data-name="Rectangle 60" d="m73.701 163.421-1.171-7.662 114.292-17.468 1.17 7.662z"/><path data-name="Rectangle 61" d="m71.354 148.091-1.171-7.662 114.292-17.468 1.17 7.662z"/></g><circle data-name="Ellipse 2" cx="69.889" cy="69.889" r="69.889" transform="translate(133.183 64)" fill="#fff"/><path data-name="picto eligibilité" d="m190.47 126.866-3.854 3.853 13.819 13.817 35.941-35.941-3.851-3.853-32.09 32.09Zm35.8-.815-5.579 5.579c-2.169 10.692-16.746 29.116-20.3 33.479-1.719-2.114-6.7-8.358-11.337-15.358-6.172-9.321-9.3-16.232-9.3-20.54a20.661 20.661 0 0 1 20.638-20.638 20.443 20.443 0 0 1 14.994 6.5l.044.046 3.851-3.849v-.007a25.849 25.849 0 0 0-18.884-8.137 26.116 26.116 0 0 0-26.086 26.087c0 13.719 23.038 40.775 24.018 41.922l2.068 2.41 2.068-2.41c.981-1.144 24.02-28.172 24.02-41.922a25.75 25.75 0 0 0-.209-3.147Z" fill="#fd7fc7"/></g></svg>