<svg xmlns="http://www.w3.org/2000/svg" width="197.776" height="186.651" viewBox="0 0 197.776 186.651"><g transform="translate(-28.376)"><g data-name="Group 30"><g data-name="Group 18" fill="#fff"><path data-name="Rectangle 54" d="m45.745 186.651-1.142-7.472 111.471-17.037 1.142 7.472z"/><path data-name="Rectangle 55" d="m43.456 171.699-1.142-7.472 111.471-17.037 1.142 7.472z"/><path data-name="Rectangle 56" d="m41.166 156.747-1.142-7.472 111.471-17.037 1.142 7.472z"/><path data-name="Rectangle 57" d="m38.876 141.795-1.142-7.472 111.471-17.037 1.142 7.472z"/><path data-name="Rectangle 58" d="m36.39 126.871-1.142-7.472 111.471-17.037 1.142 7.472z"/><path data-name="Rectangle 59" d="m34.1 111.919-1.142-7.472L144.429 87.41l1.142 7.472z"/><path data-name="Rectangle 60" d="m31.811 96.967-1.142-7.472L142.14 72.458l1.142 7.472z"/><path data-name="Rectangle 61" d="m29.521 82.015-1.142-7.472L139.85 57.506l1.142 7.472z"/></g></g><circle data-name="Ellipse 2" cx="68.164" cy="68.164" transform="translate(89.825)" fill="#fd7fc7" r="68.164"/><path data-name="picto eligibilité" d="m145.698 61.314-3.758 3.758 13.478 13.476 35.054-35.054-3.756-3.758-31.3 31.3Zm34.916-.8-5.441 5.444c-2.115 10.428-16.333 28.4-19.8 32.652-1.677-2.062-6.536-8.151-11.057-14.979-6.019-9.091-9.072-15.831-9.072-20.033a20.151 20.151 0 0 1 20.129-20.129 19.938 19.938 0 0 1 14.624 6.338l.043.045 3.756-3.754v-.007a25.211 25.211 0 0 0-18.418-7.937 25.471 25.471 0 0 0-25.443 25.443c0 13.38 22.469 39.769 23.425 40.887l2.017 2.351 2.017-2.351c.956-1.116 23.428-27.477 23.428-40.887a25.115 25.115 0 0 0-.2-3.069Z" fill="#fff"/></g></svg>